<?xml version="1.0" encoding="UTF-8"?>
<svg xmlns="http://www.w3.org/2000/svg" xmlns:xlink="http://www.w3.org/1999/xlink" viewBox="0 0 480 480" width="480px" height="480px">
<g id="surface26868134">
<path style=" stroke:none;fill-rule:nonzero;fill:rgb(8.627451%,70.19608%,67.450982%);fill-opacity:1;" d="M 200 40 L 280 40 L 280 120 L 200 120 Z M 200 40 "/>
<path style=" stroke:none;fill-rule:nonzero;fill:rgb(8.627451%,70.19608%,67.450982%);fill-opacity:1;" d="M 200 360 L 280 360 L 280 440 L 200 440 Z M 200 360 "/>
<path style=" stroke:none;fill-rule:nonzero;fill:rgb(8.627451%,70.19608%,67.450982%);fill-opacity:1;" d="M 440 200 L 440 280 L 360 280 L 360 200 Z M 440 200 "/>
<path style=" stroke:none;fill-rule:nonzero;fill:rgb(8.627451%,70.19608%,67.450982%);fill-opacity:1;" d="M 120 200 L 120 280 L 40 280 L 40 200 Z M 120 200 "/>
<path style=" stroke:none;fill-rule:nonzero;fill:rgb(8.627451%,70.19608%,67.450982%);fill-opacity:1;" d="M 409.707031 353.140625 L 353.140625 409.707031 L 296.570312 353.140625 L 353.140625 296.570312 Z M 409.707031 353.140625 "/>
<path style=" stroke:none;fill-rule:nonzero;fill:rgb(8.627451%,70.19608%,67.450982%);fill-opacity:1;" d="M 183.429688 126.859375 L 126.859375 183.429688 L 70.292969 126.859375 L 126.859375 70.292969 Z M 183.429688 126.859375 "/>
<path style=" stroke:none;fill-rule:nonzero;fill:rgb(8.627451%,70.19608%,67.450982%);fill-opacity:1;" d="M 353.140625 70.292969 L 409.707031 126.859375 L 353.140625 183.429688 L 296.570312 126.859375 Z M 353.140625 70.292969 "/>
<path style=" stroke:none;fill-rule:nonzero;fill:rgb(8.627451%,70.19608%,67.450982%);fill-opacity:1;" d="M 126.863281 296.5625 L 183.429688 353.132812 L 126.863281 409.703125 L 70.292969 353.132812 Z M 126.863281 296.5625 "/>
<path style=" stroke:none;fill-rule:nonzero;fill:rgb(8.627451%,70.19608%,67.450982%);fill-opacity:1;" d="M 410 240 C 410 333.886719 333.886719 410 240 410 C 146.113281 410 70 333.886719 70 240 C 70 146.113281 146.113281 70 240 70 C 333.886719 70 410 146.113281 410 240 Z M 410 240 "/>
<path style=" stroke:none;fill-rule:nonzero;fill:rgb(49.019608%,92.156863%,96.078432%);fill-opacity:1;" d="M 380 240 C 380 317.320312 317.320312 380 240 380 C 162.679688 380 100 317.320312 100 240 C 100 162.679688 162.679688 100 240 100 C 317.320312 100 380 162.679688 380 240 Z M 380 240 "/>
<path style=" stroke:none;fill-rule:nonzero;fill:rgb(8.627451%,70.19608%,67.450982%);fill-opacity:1;" d="M 365.789062 304.621094 L 260 229.660156 L 260 100 L 220 100 L 220 229.660156 L 114.210938 304.621094 L 137.328125 337.261719 L 240 264.511719 L 342.667969 337.261719 Z M 365.789062 304.621094 "/>
<path style=" stroke:none;fill-rule:nonzero;fill:rgb(8.627451%,70.19608%,67.450982%);fill-opacity:1;" d="M 340 240 C 340 295.226562 295.226562 340 240 340 C 184.769531 340 140 295.226562 140 240 C 140 184.769531 184.769531 140 240 140 C 295.226562 140 340 184.769531 340 240 Z M 340 240 "/>
<path style=" stroke:none;fill-rule:nonzero;fill:rgb(0%,70.19608%,84.313726%);fill-opacity:1;" d="M 260 229.660156 L 260 141.910156 C 253.570312 140.460938 246.871094 139.679688 240 139.679688 C 233.128906 139.679688 226.429688 140.449219 220 141.910156 L 220 229.660156 L 148.5 280.320312 C 153.710938 292.878906 161.679688 304 171.640625 312.941406 L 240 264.511719 L 308.539062 313.070312 C 318.511719 304.128906 326.46875 293 331.679688 280.449219 Z M 260 229.660156 "/>
<path style=" stroke:none;fill-rule:nonzero;fill:rgb(49.019608%,92.156863%,96.078432%);fill-opacity:1;" d="M 290 240 C 290 267.613281 267.613281 290 240 290 C 212.386719 290 190 267.613281 190 240 C 190 212.386719 212.386719 190 240 190 C 267.613281 190 290 212.386719 290 240 Z M 290 240 "/>
</g>
</svg>
